<?xml version="1.0" encoding="UTF-8"?>
<svg id="_Слой_1" data-name="Слой_1" xmlns="http://www.w3.org/2000/svg" version="1.1" viewBox="0 0 505.81 115.07">
  <!-- Generator: Adobe Illustrator 29.6.1, SVG Export Plug-In . SVG Version: 2.1.1 Build 9)  -->
  <defs>
    <style>
      .st0 {
        fill: #cdbfb2;
      }
    </style>
  </defs>
  <path class="st0" d="M173.42,8.21l-43.84,98.67h-23.26L62.63,8.21h15.22l40.31,90.92L158.34,8.21h15.08Z"/>
  <path class="st0" d="M257.66,106.88h-13.81v-29.19L196.33,8.19h16.8l30.72,45.31,7.31,10.78,6.5-9.49,31.87-46.6h16.63l-48.51,70.07v28.61Z"/>
  <rect class="st0" x="7.06" y="8.24" width="13.81" height="98.63"/>
  <path class="st0" d="M323.6,101.77c0,.74-.15,1.43-.44,2.05-.29.63-.78,1.16-1.46,1.61-.68.45-1.58.8-2.7,1.06-1.12.25-2.51.38-4.17.38s-3.02-.19-4.07-.57c-1.05-.38-1.88-.87-2.49-1.46-.61-.59-1.05-1.25-1.31-1.97-.26-.72-.42-1.43-.49-2.13h2.52c.09,1.28.64,2.28,1.63,2.98.99.7,2.42,1.06,4.29,1.06s3.46-.23,4.57-.68c1.12-.45,1.68-1.18,1.7-2.17.02-1-.48-1.71-1.47-2.14-1-.43-2.55-.7-4.65-.83-1.39-.05-2.6-.14-3.62-.28-1.02-.14-1.86-.38-2.53-.71s-1.16-.78-1.47-1.35c-.32-.57-.48-1.31-.48-2.23,0-.68.16-1.33.48-1.95.32-.62.82-1.16,1.51-1.63.69-.47,1.57-.84,2.65-1.12,1.08-.28,2.37-.42,3.89-.42,1.63,0,2.96.18,3.98.55,1.02.36,1.83.83,2.42,1.4.59.57,1.01,1.21,1.26,1.92.25.71.4,1.42.46,2.11h-2.52c-.06-.74-.25-1.37-.55-1.86-.3-.5-.7-.9-1.2-1.2-.5-.3-1.08-.51-1.75-.64s-1.39-.19-2.18-.19c-.9,0-1.72.06-2.46.17-.74.11-1.37.28-1.9.51-.53.23-.94.52-1.23.88-.29.36-.44.79-.44,1.29s.11.9.34,1.22c.23.32.59.59,1.08.78.49.2,1.12.35,1.89.45s1.67.19,2.72.25c1.46.08,2.7.21,3.73.39,1.03.18,1.88.46,2.54.82.66.36,1.15.84,1.46,1.42.31.59.46,1.32.46,2.21Z"/>
  <path class="st0" d="M344.24,92.34v14.53h-2.33v-14.53h-7.39v-2.09h17.12v2.09h-7.41Z"/>
  <path class="st0" d="M365.2,100.8v6.08h-2.33v-16.62h11.09c.87,0,1.66.12,2.37.34.71.23,1.32.57,1.82,1.02.5.45.89,1.02,1.16,1.7.28.68.42,1.47.42,2.38-.05,1.33-.37,2.38-.96,3.16-.59.78-1.41,1.32-2.46,1.64l3.68,6.36h-2.73l-3.44-6.06h-8.62ZM365.2,98.71h7.98c1.38,0,2.4-.27,3.08-.81.67-.54,1.01-1.32,1.01-2.35s-.32-1.8-.95-2.36c-.63-.56-1.59-.84-2.87-.84h-8.24v6.37Z"/>
  <path class="st0" d="M407.25,104.79v2.09h-15.86v-16.62h15.08v2.09h-12.75v4.49h10.35v2.09h-10.35v5.87h13.54Z"/>
  <path class="st0" d="M434.5,104.79v2.09h-15.86v-16.62h15.08v2.09h-12.75v4.49h10.35v2.09h-10.35v5.87h13.54Z"/>
  <path class="st0" d="M454.67,92.34v14.53h-2.33v-14.53h-7.39v-2.09h17.12v2.09h-7.41Z"/>
  <path class="st0" d="M489.66,101.77c0,.74-.15,1.43-.44,2.05-.29.63-.78,1.16-1.46,1.61-.68.45-1.58.8-2.7,1.06-1.12.25-2.51.38-4.17.38s-3.02-.19-4.07-.57c-1.05-.38-1.88-.87-2.49-1.46-.61-.59-1.05-1.25-1.31-1.97-.26-.72-.42-1.43-.49-2.13h2.52c.09,1.28.64,2.28,1.63,2.98.99.7,2.42,1.06,4.29,1.06s3.46-.23,4.57-.68c1.12-.45,1.68-1.18,1.7-2.17s-.48-1.71-1.47-2.14c-1-.43-2.55-.7-4.65-.83-1.39-.05-2.6-.14-3.62-.28-1.02-.14-1.86-.38-2.53-.71s-1.16-.78-1.47-1.35c-.32-.57-.48-1.31-.48-2.23,0-.68.16-1.33.48-1.95.32-.62.82-1.16,1.51-1.63.69-.47,1.57-.84,2.65-1.12,1.08-.28,2.37-.42,3.89-.42,1.63,0,2.96.18,3.98.55,1.02.36,1.83.83,2.42,1.4.59.57,1.01,1.21,1.26,1.92.25.71.4,1.42.46,2.11h-2.52c-.06-.74-.25-1.37-.55-1.86s-.7-.9-1.2-1.2c-.5-.3-1.08-.51-1.75-.64s-1.39-.19-2.18-.19c-.9,0-1.72.06-2.46.17-.74.11-1.37.28-1.9.51-.53.23-.94.52-1.23.88-.29.36-.44.79-.44,1.29s.11.9.34,1.22.59.59,1.08.78c.49.2,1.12.35,1.89.45s1.67.19,2.72.25c1.46.08,2.7.21,3.73.39,1.03.18,1.88.46,2.54.82.66.36,1.15.84,1.46,1.42.31.59.46,1.32.46,2.21Z"/>
  <path class="st0" d="M496.53,104.59v2.28h2.21v-2.28h-2.21Z"/>
</svg>