<?xml version="1.0" encoding="UTF-8"?>
<svg id="_Слой_1" data-name="Слой_1" xmlns="http://www.w3.org/2000/svg" version="1.1" viewBox="0 0 343.85 595.68">
  <!-- Generator: Adobe Illustrator 29.6.1, SVG Export Plug-In . SVG Version: 2.1.1 Build 9)  -->
  <defs>
    <style>
      .st0 {
        fill: #f8f8f6;
      }
    </style>
  </defs>
  <path class="st0" d="M334.8,375.15c.9,1.31,2.09,2.76,2.34,4.27.16.94.48,1.81.57,2.76.12,1.36-.35,2.37-.58,3.64-.09.5.12.87-.08,1.39-.16.43-.76.68-.92,1.11-.31.81-.09,1.91-.09,2.78,0,2.36-.56,4.33-.56,6.67s-.6,5.89.05,8.28c.23.86.52,1.3.51,2.27-.02,1.11,0,2.21,0,3.32,0,1.44.2,2.56.43,3.94.14.84.3,1.88.15,2.74-.16.91-.55,1.54-.59,2.5-.05,1.21,0,2.43,0,3.64v13.02c0,1.76.01,3.52,0,5.28,0,1.14.09,1.74.42,2.78.28.86,1.12,2.48.61,3.36-.36.61-1.75,1.17-2.39,1.38-.73.24-1.22.09-1.97.23-1.03.19-1.12.39-1.97.81-1.95.98-5.28.33-7.5.33h-12.16c-1.44,0-2.88-.17-4.25.25-1.04.31-1.81.82-2.9.92s-2.29-.15-3.42-.08c-2.04.13-3.93.59-6.03.57-1.66-.01-3.33,0-4.99,0-2.26,0-4.6.19-6.85.03-.93-.07-1.8-.4-2.71-.59-1.1-.23-.96.07-1.68-.97-.13-.19-.17-.59-.34-.84-.77-1.13-1.08-1.41-1.37-2.77-.28-1.28-.57-2.47-.55-3.79.03-2.29.75-4.47,1.67-6.54.92-2.07,2.04-4.05,2.9-6.16.43-1.07.81-2.17,1.03-3.3.11-.57.67-2.93.23-3.37l-1.14-1.13-19.39,26.38h-12.73c9.1-13.66,16.05-29.1,17.84-42.97,1.07-8.34,1.72-20.17-4.29-26.67l-1.9,1.94c-3.9,7.73-3.69,18-7.05,25.4-2.98,6.57-10.39,10.13-13.21,15.37-3.21,5.94-3.41,14.69-7.21,22.1-.49.95-1.62,4.34-2.62,4.69-.69.25-.47-.04-1.02-.08-1.11-.07-2.24-.05-3.37-.05h-6.93c-4.62,0-9.23,0-13.85,0-4.46,0-9.22-.52-13.65.05-2.42.31-5.66,1.72-7.6-.57-1.46-1.73-1.33-4.6-1.44-6.71-.18-3.34-.61-6.48-1.45-9.73-.63-2.42-1.31-4.84-2.27-7.16-.33-.79-2.88-6.69-3.82-6.5-7.24,1.5-16.2-.09-23.01.63-9.16.94-14.29,5.35-23.88,3.02-9.38-2.28-18.64-12.47-27.4-15.12-4.19-1.26-27.67-3.3-32.95-3.4-6.74-.12-13.15,3.53-20.09,2.38l-1.81-1.26c-.26-1.48-.28-2.98-.05-4.46,1.14-7.66,22.21-28.92,28.9-33.66,8.14-5.76,32.3-12.94,34.19-22.97,1.77-6.79-4.7-9.63-7.54-14.47-.16-6.6,20.86-11.25,25.94-11.93,12.37-1.66,25.63,1.62,37.22-2.93,7.91-3.1,4.82-7.84,10.63-11.82,6.9-.83,24.11,17.24,26.91,23.28,5.85,12.61,2.99,26.12,7.2,38.62,22.71-6.66,41.54-8.6,60.84,7.64,1.48-.33.44-9.6.31-11.1-2.65-28.03-23.85-66.01-50.9-76.53-35.4-13.78-77.92-9.3-109.01-33.67-9.41-7.37-18.95-19.19-25.36-29.31-12.83,8.84-11.59,21.46-23.57,31.64-9.2,7.81-19.18,9.16-29.17,15.64-4.18,2.7-7.43,6.66-11.47,9.37-1.21.81-2.03,1.74-3.35,2.39-2.89,1.41-5.23,2.64-7.07-.73-2.63-4.82-2.86-9.77-2.92-15.29-.02-1.48.53-2.68.57-4.15.01-.48-.16-1.16-.05-1.63.19-.84.82-1.36,1.06-2.21.42-1.53.09-3.45.09-5.04,0-.55.03-1.11.01-1.65-.05-1.11-.48-1.37-1-2.35-1.42-2.66-.68-6.51-.68-9.44,0-2.77,0-5.54,0-8.32,0-.56.04-1.16.01-1.72-.04-.75-.36-1.13-.44-1.64-.21-1.22-.12-2.52-.12-3.78,0-3.45-.55-6.68-.56-10.13,0-2.48-.35-5.15.54-7.44.63-1.61.79-3.12,1.22-4.73.21-.8.9-1.28,1.06-2.1.17-.87-.16-1.75.08-2.65.13-.47.39-.84.45-1.4.08-.82-.19-1.52.08-2.36.25-.79.87-1.12,1.06-1.9.14-.56-.05-1.51-.04-2.09,0-1.63-.34-2.87-.69-4.44-.42-1.92-.42-3.61-.42-5.6,0-3.64.36-7.4-.42-10.95-.95-4.31-.69-8.62-.69-13.04,0-2.79-.18-5.66-.03-8.44.07-1.25.49-1.44.89-2.54.35-.96.25-1.71.25-2.75,0-.73-.05-1.49-.01-2.22.05-1.09.47-1.99.6-3.07.21-1.88-.18-3.56.51-5.41.27-.73.76-1.34,1.02-2.08.29-.83.27-1.57.78-2.34.78-1.2,2.09-2.27,3.58-2.25,1.55.01,2.66,1.33,4.24,1.37,1.41.04,2.53-.16,3.95.19,2.04.51,4.06,1.13,6.06,1.77,7.81,2.5,15.36,5.7,22.98,8.7l9.98-15.54c-3.72-23.73-2.17-42.99,10.53-63.62,2.64-4.29,6.05-8.06,9.42-11.77,4.37-4.81,8.93-9.58,12.32-15.16,1.58-2.59,2.89-5.37,3.62-8.33.35-1.41.71-3,.65-4.46-.04-1.12-.32-.9-.87-1.69-.47-.68-.4-1.38-.58-2.15-.16-.66-.38-.68-.26-1.38.04-.21.65-1.14.72-1.3.8-1.69.64-1.65,2.37-1.11.99.31,2.32.57,3.36.7,1.21.15,1.63-.04,2.71.51,1.29.67,2.58,1.08,4.05,1.14,2.68.1,5.39-.01,8.07-.01,1.14,0,2.33.09,3.47.01s2.05-.56,3.28-.58c2.33-.04,4.67.01,7,.01h17.91c1.16,0,2.33,0,3.49,0,1.17-.02,1.67.39,2.76.59.88.16,1.88-.11,2.78-.04,1.1.08,1.62.73,2.65,1.03.91.26,1.84,0,2.75.22.79.19,1.68.67,2.51.86,2.3.53,5.06.13,7.42.13,1.88,0,4.03.26,5.88-.11,1.35-.27,2.55-.77,3.9-.98,1.21-.19,2.6-.41,3.78-.69.86-.21,1.72-.69,2.61-.86,1.3-.26,2.4-.14,3.67-.68,3.39-1.42,7.37-1.63,11.19-1.66,1.81-.02,4.4.03,5.8,1.2s2.76,2.51,3.7,4.1c.53.9.59,1.24.44,2-.42,2.15-1.92,4.46-2.79,6.49-2.29,1.28-5.42.18-7.57.93-16.03,5.59-4.56,14.08-8.15,25.86-1.1,3.59-5.52,3.92-7.26,8.14-1.77,4.29-1.91,10.3-3.9,15.43-2.46,6.4-13.07,26.62-20.88,24.33-1.85-.54-21.37-26.13-24.22-29.86-1.57-2.05-4.39-2.73-6.45-5.87-4.82-7.32-2.46-13.1-13.22-16.92-10.75-3.84-17.51,1.01-27.96.44-15.27,14.92-26.22,38.81-24.54,60.49.22,2.92,3.3,21.89,5.7,21.91l31.83-6.92c5.67,3.04,4.72,24.55,2.8,30.4l22.88,29.64c-8.79,15.64-24.64,27.64-42.32,31.55l-.42,3.48c12.39,24.56,57.65,58.51,85.42,45.99,2.54-1.14,30.68-21.36,29.31-22.82-8.79.27-29.63-9.23-32.23-17.6-1.59-5.13-.81-12.25-2.77-18.08-3.73-11.06-16-21.71-12.55-35.43,2.37-3.21,12.8,4.06,16.32,4.62,18.75,2.96,31.91-12.77,51.27-6.49,4.8-5.62,6.17-12.41,10.88-18.33,5.67-7.11,14.75-10.12,20.44-16.82,4.91-5.8,6.13-13.15,12.37-18.52,4.21-3.63,33.26-19.38,37.82-19.38,1.52,0,3.46-.27,4.72.74,1.63,7.57-1.37,14.83-.24,23.41,1.5,11.48,11.31,19.25,13.32,30.71,4.45,25.19-1.24,50.18-19.42,68.37-.09,1.62,5.75,4.5,7.15,6.08,8.45,9.61,15.4,26.59,11.15,39.35-5.74,2.54-11.98,2.28-17.81,4.79-4.71,2.04-7.92,6.44-11.67,8.41-8.52,4.5-18.92,1.21-19.68,13.51l-3.42,2.1c-7.05-4.4-17.29-5.1-24.11-8.42-4.41-2.15-9.84-8.11-14.38-11.1-2.22-1.46-7.1-2.12-8.22-3.37-5.71-6.43,8.07-18.73,8.92-25.1l-1.54-5.43c-5.56-5.02-19.87,6.06-24.7,9.37-3.26,2.23-26.68,19.92-26.3,21.57,12.4,3.75,27.25,5.33,39.41,9.23,34.95,11.2,57.83,58.05,59.41,92.73.77,17.06-4.8,33.55-5.38,50.57,16.58-11.31,15.17-33.47,40.92-16.22-.09-6.12,1.56-11.55,6.03-15.83,2.04-1.95,4.34-3.59,6.56-5.33,2.03-1.59,3.71-3.54,5.76-5.12.82-.63,1.37-1.84,2.21-2.32Z"/>
  <path class="st0" d="M142.68,506.19l-35.99,81h-19.09l-35.87-81h12.5l33.1,74.64,32.98-74.64h12.38Z"/>
  <path class="st0" d="M211.83,587.2h-11.34v-23.96l-39.01-57.05h13.79l25.22,37.2,6,8.85,5.33-7.79,26.17-38.26h13.66l-39.82,57.52v23.48Z"/>
  <rect class="st0" x="6.11" y="506.21" width="11.34" height="80.97"/>
  <path class="st0" d="M269.42,581.9c0,.77-.15,1.48-.46,2.13-.3.65-.81,1.21-1.51,1.68-.71.47-1.64.83-2.8,1.1-1.16.26-2.6.39-4.32.39s-3.13-.2-4.22-.59c-1.09-.39-1.96-.9-2.59-1.51-.63-.62-1.09-1.3-1.36-2.04-.27-.75-.44-1.48-.5-2.21h2.61c.1,1.33.66,2.36,1.69,3.09,1.03.73,2.51,1.1,4.45,1.1s3.58-.23,4.74-.7c1.16-.47,1.75-1.22,1.76-2.25.01-1.04-.49-1.77-1.53-2.22-1.03-.44-2.64-.73-4.83-.86-1.45-.05-2.7-.15-3.76-.3-1.06-.15-1.93-.39-2.63-.74-.69-.34-1.2-.81-1.53-1.4-.33-.59-.49-1.36-.49-2.32,0-.71.17-1.38.49-2.02.33-.64.85-1.2,1.57-1.69.71-.48,1.63-.87,2.75-1.16s2.46-.43,4.04-.43c1.69,0,3.07.19,4.13.57,1.06.38,1.9.86,2.51,1.45.62.59,1.05,1.26,1.31,2s.41,1.47.48,2.19h-2.61c-.06-.77-.25-1.42-.56-1.94-.31-.52-.73-.93-1.24-1.24-.52-.31-1.12-.53-1.81-.67-.69-.13-1.45-.2-2.27-.2-.94,0-1.79.06-2.55.17s-1.42.29-1.97.53c-.55.24-.98.54-1.28.91-.3.37-.46.82-.46,1.34s.12.93.36,1.27c.24.34.61.61,1.12.81.51.21,1.16.36,1.96.47.79.11,1.74.19,2.82.26,1.51.08,2.8.22,3.87.41,1.07.19,1.95.47,2.64.85.69.38,1.19.87,1.51,1.48s.48,1.37.48,2.29Z"/>
  <path class="st0" d="M291.32,572.1v15.08h-2.41v-15.08h-7.66v-2.17h17.77v2.17h-7.69Z"/>
  <path class="st0" d="M313.98,580.87v6.31h-2.41v-17.25h11.51c.9,0,1.73.12,2.46.36.74.24,1.37.59,1.88,1.06.52.47.92,1.06,1.21,1.76s.43,1.53.43,2.46c-.05,1.38-.38,2.47-1,3.28-.62.8-1.47,1.37-2.55,1.7l3.82,6.6h-2.83l-3.57-6.28h-8.94ZM313.98,578.7h8.28c1.43,0,2.49-.28,3.19-.84.7-.56,1.05-1.37,1.05-2.44s-.33-1.87-.99-2.45c-.66-.58-1.65-.87-2.98-.87h-8.55v6.6Z"/>
  <path class="st0" d="M335.34,584.71v2.47h2.39v-2.47h-2.39Z"/>
</svg>