<?xml version="1.0" encoding="UTF-8"?>
<svg id="_Слой_1" data-name="Слой_1" xmlns="http://www.w3.org/2000/svg" version="1.1" viewBox="0 0 337.73 86.1">
  <!-- Generator: Adobe Illustrator 29.6.1, SVG Export Plug-In . SVG Version: 2.1.1 Build 9)  -->
  <defs>
    <style>
      .st0 {
        fill: #cdbfb2;
      }
    </style>
  </defs>
  <path class="st0" d="M139.62,2.55l-35.99,81h-19.09L48.67,2.55h12.5l33.1,74.64L127.24,2.55h12.38Z"/>
  <path class="st0" d="M208.78,83.56h-11.34v-23.96L158.43,2.55h13.79l25.22,37.2,6,8.85,5.33-7.79L234.94,2.55h13.66l-39.82,57.52v23.48Z"/>
  <rect class="st0" x="3.06" y="2.57" width="11.34" height="80.97"/>
  <path class="st0" d="M266.36,78.25c0,.77-.15,1.48-.46,2.13-.3.65-.81,1.21-1.51,1.68-.71.47-1.64.83-2.8,1.1-1.16.26-2.6.39-4.32.39s-3.13-.2-4.22-.59c-1.09-.39-1.96-.9-2.59-1.51-.63-.62-1.09-1.3-1.36-2.04-.27-.75-.44-1.48-.5-2.21h2.61c.1,1.33.66,2.36,1.69,3.09,1.03.73,2.51,1.1,4.45,1.1s3.58-.23,4.74-.7c1.16-.47,1.75-1.22,1.76-2.25.01-1.04-.49-1.77-1.53-2.22-1.03-.44-2.64-.73-4.83-.86-1.45-.05-2.7-.15-3.76-.3-1.06-.15-1.93-.39-2.63-.74-.69-.34-1.2-.81-1.53-1.4-.33-.59-.49-1.36-.49-2.32,0-.71.17-1.38.49-2.02.33-.64.85-1.2,1.57-1.69.71-.48,1.63-.87,2.75-1.16,1.12-.29,2.46-.43,4.04-.43,1.69,0,3.07.19,4.13.57,1.06.38,1.9.86,2.51,1.45.62.59,1.05,1.26,1.31,2s.41,1.47.48,2.19h-2.61c-.06-.77-.25-1.42-.56-1.94-.31-.52-.73-.93-1.24-1.24-.52-.31-1.12-.53-1.81-.67-.69-.13-1.45-.2-2.27-.2-.94,0-1.79.06-2.55.17s-1.42.29-1.97.53c-.55.24-.98.54-1.28.91-.3.37-.46.82-.46,1.34s.12.93.36,1.27c.24.34.61.61,1.12.81.51.21,1.16.36,1.96.47.79.11,1.74.19,2.82.26,1.51.08,2.8.22,3.87.41,1.07.19,1.95.47,2.64.85.69.38,1.19.87,1.51,1.48s.48,1.37.48,2.29Z"/>
  <path class="st0" d="M288.26,68.46v15.08h-2.41v-15.08h-7.66v-2.17h17.77v2.17h-7.69Z"/>
  <path class="st0" d="M310.92,77.23v6.31h-2.41v-17.25h11.51c.9,0,1.73.12,2.46.36.74.24,1.37.59,1.88,1.06.52.47.92,1.06,1.21,1.76s.43,1.53.43,2.46c-.05,1.38-.38,2.47-1,3.28-.62.8-1.47,1.37-2.55,1.7l3.82,6.6h-2.83l-3.57-6.28h-8.94ZM310.92,75.06h8.28c1.43,0,2.49-.28,3.19-.84.7-.56,1.05-1.37,1.05-2.44s-.33-1.87-.99-2.45c-.66-.58-1.65-.87-2.98-.87h-8.55v6.6Z"/>
  <path class="st0" d="M332.28,81.06v2.47h2.39v-2.47h-2.39Z"/>
</svg>